<!DOCTYPE svg PUBLIC "-//W3C//DTD SVG 1.1//EN" "http://www.w3.org/Graphics/SVG/1.1/DTD/svg11.dtd">

<!-- Uploaded to: SVG Repo, www.svgrepo.com, Transformed by: SVG Repo Mixer Tools -->
<svg width="64px" height="64px" viewBox="-8.16 -8.16 40.32 40.32" fill="none" xmlns="http://www.w3.org/2000/svg">

<g id="SVGRepo_bgCarrier" stroke-width="0">

<!-- <path transform="translate(-8.16, -8.16), scale(1.26)" d="M16,26.434180106036365C17.944854439382397,26.727887432490558,19.72694614723097,28.077400557495373,21.670432879412488,27.77477520192732C23.702355634745462,27.45837924401448,25.57635263271848,26.2629936405852,26.946636145559197,24.729651023861713C28.338680738824305,23.171957831736872,29.00876266543984,21.111807805915703,29.449696544858117,19.069805468891612C29.88791728595077,17.040367906452104,29.858583108618113,14.96388925998546,29.496841249780054,12.919434059857908C29.12460878327277,10.815689129007087,28.96355549896253,8.333613360941202,27.310571545190307,6.980120179660201C25.606200528843747,5.584550341408815,22.92512076730292,6.685495993133756,20.880955711697545,5.864591028938092C19.01283437013943,5.1143824883900955,18.012215851723578,2.3773272206719467,16,2.437970168888569C13.967302569353192,2.4992303785828667,12.74570437539685,4.767346993404713,11.258696044964665,6.154580889716078C10.08755542304165,7.247140988291043,9.54405710948629,8.939628974781472,8.162379658351957,9.749706345372267C5.795423865815453,11.137452322661293,1.4625633288139155,9.892799333504064,0.5002176768485622,12.462275830272883C-0.3860835791017645,14.828712714536,3.5260805942559834,16.400397923098886,4.8700232258372935,18.54034456881657C5.7783237112038615,19.98662250605033,6.073606482518321,21.731750547859498,7.1529210478594045,23.055310033673745C8.226380599799334,24.3716895380669,9.511639208912968,25.572190412806382,11.098429415802478,26.17821619489571C12.6462402703143,26.769355010574824,14.361722721096463,26.18677133865827,16,26.434180106036365" fill="#aac241" strokewidth="0"/> -->

</g>

<!-- <g id="SVGRepo_tracerCarrier" stroke-linecap="round" stroke-linejoin="round"/> -->

<g fill="#aac241" id="SVGRepo_iconCarrier"> <path fill-rule="evenodd" clip-rule="evenodd" d="M9.87763 4.24993C10.1869 3.37503 11.0213 2.75 11.9998 2.75C12.9783 2.75 13.8127 3.37503 14.122 4.24993C14.26 4.64047 14.6885 4.84517 15.079 4.70713C15.4696 4.56909 15.6742 4.1406 15.5362 3.75007C15.0218 2.29459 13.6337 1.25 11.9998 1.25C10.3658 1.25 8.9778 2.29459 8.46337 3.75007C8.32533 4.1406 8.53002 4.56909 8.92056 4.70713C9.3111 4.84517 9.73959 4.64047 9.87763 4.24993ZM2.74709 8.09098C2.69375 8.05631 2.63765 8.02929 2.58008 8.00965C2.73322 7.69204 2.92679 7.41623 3.17145 7.17157C4.34303 6 6.22864 6 9.99988 6H13.9999C17.7711 6 19.6567 6 20.8283 7.17157C21.073 7.41626 21.2666 7.6921 21.4197 8.00975C21.3623 8.02939 21.3063 8.05637 21.253 8.09098C19.1526 9.45626 17.833 10.3102 16.7364 10.858C16.6701 10.5117 16.3655 10.25 15.9999 10.25C15.5857 10.25 15.2499 10.5858 15.2499 11V11.4581C13.1304 12.0976 10.8693 12.0976 8.74988 11.458V11C8.74988 10.5858 8.41409 10.25 7.99988 10.25C7.63428 10.25 7.32978 10.5116 7.26334 10.8578C6.1669 10.31 4.84732 9.45613 2.74709 8.09098Z"/> <path opacity="0.5" d="M2 13.9998C2 12.0494 2 10.6033 2.16208 9.49951C4.43876 10.9794 5.89798 11.9231 7.25 12.5044V12.9998C7.25 13.414 7.58579 13.7498 8 13.7498C8.40872 13.7498 8.74109 13.4229 8.74982 13.0163C10.8801 13.5779 13.1199 13.5779 15.2502 13.0163C15.259 13.4229 15.5913 13.7498 16 13.7498C16.4142 13.7498 16.75 13.414 16.75 12.9998V12.5045C18.1021 11.9233 19.5613 10.9796 21.8379 9.49971C22 10.6035 22 12.0495 22 13.9998C22 17.7711 22 19.6567 20.8284 20.8283C19.6569 21.9998 17.7712 21.9998 14 21.9998H10C6.22876 21.9998 4.34315 21.9998 3.17157 20.8283C2 19.6567 2 17.7711 2 13.9998Z" /> </g>

</svg>